<svg width="22" height="22" viewBox="0 0 22 22" fill="none" xmlns="http://www.w3.org/2000/svg">
<path d="M11 1C10.8362 1 10.6764 1.0524 10.5422 1.15009C10.408 1.24778 10.306 1.38602 10.2501 1.54605L8.13483 7.08379C8.08092 7.23493 7.98583 7.36646 7.86119 7.46232C7.73654 7.55818 7.58774 7.61421 7.43296 7.62357L1.76031 8.00342C1.01998 8.0534 0.731536 9.043 1.2988 9.5328L5.64463 13.3013C5.7661 13.4057 5.85672 13.5437 5.90605 13.6993C5.95538 13.8549 5.96141 14.0219 5.92346 14.1809L4.62548 19.4987C4.40434 20.3984 5.32735 21.1281 6.06768 20.6383L10.577 17.6695C10.7034 17.5859 10.8502 17.5415 11 17.5415V1Z" fill="#F6CD19"/>
<path d="M11.423 17.6695L16.2688 20.8682C16.8938 21.278 17.663 20.6683 17.4803 19.9186L16.0765 14.1809C16.0386 14.0219 16.0446 13.8549 16.094 13.6993C16.1433 13.5437 16.2339 13.4057 16.3554 13.3013L20.7012 9.5328C21.2685 9.043 20.98 8.0534 20.2397 8.00342L14.567 7.62357C14.4123 7.61421 14.2635 7.55818 14.1388 7.46232C14.0142 7.36646 13.9191 7.23493 13.8652 7.08379L11.7499 1.54605C11.694 1.38602 11.592 1.24778 11.4578 1.15009C11.3236 1.0524 11.1638 1 11 1V17.5415C11.1498 17.5415 11.2966 17.5859 11.423 17.6695Z" fill="#F6CD19"/>
<path d="M11 1C11.1638 1 11.3236 1.0524 11.4578 1.15009C11.592 1.24778 11.694 1.38602 11.7499 1.54605L13.8652 7.08379C13.9191 7.23493 14.0142 7.36646 14.1388 7.46232C14.2635 7.55818 14.4123 7.61421 14.567 7.62357L20.2397 8.00342C20.98 8.0534 21.2685 9.043 20.7012 9.5328L16.3554 13.3013C16.2339 13.4057 16.1433 13.5437 16.094 13.6993C16.0446 13.8549 16.0386 14.0219 16.0765 14.1809L17.4803 19.9186C17.663 20.6683 16.8938 21.278 16.2688 20.8682L11.423 17.6695C11.2966 17.5859 11.1498 17.5415 11 17.5415M11 1C10.8362 1 10.6764 1.0524 10.5422 1.15009C10.408 1.24778 10.306 1.38602 10.2501 1.54605L8.13483 7.08379C8.08092 7.23493 7.98583 7.36646 7.86119 7.46232C7.73654 7.55818 7.58774 7.61421 7.43296 7.62357L1.76031 8.00342C1.01998 8.0534 0.731536 9.043 1.2988 9.5328L5.64463 13.3013C5.7661 13.4057 5.85672 13.5437 5.90605 13.6993C5.95538 13.8549 5.96141 14.0219 5.92346 14.1809L4.62548 19.4987C4.40434 20.3984 5.32735 21.1281 6.06768 20.6383L10.577 17.6695C10.7034 17.5859 10.8502 17.5415 11 17.5415M11 1V17.5415" stroke="#F6CD19" stroke-linejoin="round"/>
</svg>
